<svg width="20" height="19" viewBox="0 0 20 19" fill="none" xmlns="http://www.w3.org/2000/svg">
<path d="M5.45247 0C3.96652 0 3.22354 4.77673e-07 2.87914 0.288505C2.58072 0.538943 2.42231 0.913598 2.45297 1.29727C2.48874 1.73904 3.01404 2.25394 4.06565 3.28474L8.3048 7.43901C8.79024 7.91484 9.03346 8.15226 9.31349 8.24141C9.55978 8.31955 9.82549 8.31955 10.0708 8.24141C10.3508 8.15226 10.593 7.91484 11.0795 7.43901L15.3186 3.28474C16.3702 2.25494 16.8955 1.74004 16.9313 1.29727C16.9619 0.913598 16.8035 0.538943 16.5051 0.288505C16.1607 4.77673e-07 15.4177 0 13.9318 0H5.45247Z" fill="#E8F1F2"/>
<path d="M19.3816 5.34425C19.3816 3.88719 19.3816 3.15966 19.0874 2.82195C18.833 2.52934 18.4498 2.37401 18.0585 2.40407C17.6079 2.43915 17.0827 2.95423 16.0324 3.98339L11.7933 8.13913C11.3079 8.61513 11.0648 8.85363 10.9738 9.12821C10.8941 9.36972 10.8941 9.63026 10.9738 9.87177C11.0648 10.1463 11.3079 10.3849 11.7933 10.8609L16.0324 15.0166C17.0827 16.0468 17.6079 16.5618 18.0585 16.5959C18.4498 16.626 18.8319 16.4706 19.0874 16.178C19.3816 15.8403 19.3816 15.1128 19.3816 13.6557V5.34325V5.34425Z" fill="#E8F1F2"/>
<path d="M0 5.34425C0 3.88719 -4.87256e-07 3.15966 0.29327 2.82195C0.547711 2.52934 0.930905 2.37401 1.32227 2.40407C1.77291 2.43915 2.29814 2.95423 3.3486 3.98339L7.58826 8.13913C8.07363 8.61513 8.31683 8.85363 8.40778 9.12821C8.48748 9.36972 8.48748 9.63026 8.40778 9.87177C8.31683 10.1463 8.07363 10.3849 7.58826 10.8609L3.3486 15.0166C2.29814 16.0468 1.77291 16.5618 1.32227 16.5959C0.930905 16.626 0.548733 16.4706 0.29327 16.178C-4.87256e-07 15.8403 0 15.1128 0 13.6557V5.34325V5.34425Z" fill="#E8F1F2"/>
<path d="M13.9318 19.0002C15.4177 19.0002 16.1607 19.0002 16.5051 18.7117C16.8035 18.4623 16.9619 18.0866 16.9313 17.7029C16.8955 17.2612 16.3702 16.7453 15.3186 15.7155L11.0795 11.5612C10.594 11.0854 10.3508 10.848 10.0708 10.7588C9.82447 10.6807 9.55876 10.6807 9.31349 10.7588C9.03346 10.848 8.79024 11.0854 8.3048 11.5612L4.06565 15.7155C3.01404 16.7453 2.48874 17.2602 2.45297 17.7029C2.42231 18.0866 2.58072 18.4613 2.87914 18.7117C3.22354 19.0002 3.96652 19.0002 5.45247 19.0002H13.9318Z" fill="#061826"/>
</svg>
