<svg xmlns="http://www.w3.org/2000/svg" viewBox="0 0 2930.55 2323.6"><defs><style>.cls-1,.cls-2{fill:#000093;}.cls-1{fill-rule:evenodd;}</style></defs><g id="Слой_1" data-name="Слой 1"><path class="cls-1" d="M2252,252.84c-16.36,14.23-25.69,28.31-20.78,31.42a35.65,35.65,0,0,0,7,2.29c2.94.49,5.07,2,5.07,3.27,0,2.78-4.75,2.95-17.35.82-6.38-1-9.16-.49-16.85,2.95-19.47,9-65,41.89-78.7,57.11-15.22,16.69-30.27,43.2-30.27,53,0,5.57,2.13,7.2,9.65,7.2,5.57,0,13.26,5.73,13.26,9.82,0,3.27-7.37,6.55-15.06,6.55-3.92,0-5.23-1-6.71-4.91-1.8-4.91-6.21-7.69-9.32-5.73-1.47,1-2.13,4.09-4.09,19.31-.82,5.56-3.27,11-8.51,18.82A184.38,184.38,0,0,0,2067,475.56c-2.61,5.4-5.89,11.13-7.36,12.61-3.43,4.09-11.78,3.6-20.12-1-12.11-6.71-16.2-6.71-25.2-.65-9.82,6.54-18.16,17.18-20.45,26-2.29,8.35-12,15.71-22.58,17-4.26.49-12,2-17.18,3.11l-9.33,2.29.33-4.42c.49-3.76-.17-4.25-5.57-4.75-5.07-.49-7,.5-13.41,6.71-4.26,3.93-7.53,8.68-7.53,10.48,0,4.42-5.07,6.38-7.53,3.11-2.94-4.09-6.7-3.11-24.54,5.72-14.07,6.88-17,9-18.49,13.26-3.76,10.8-1.14,21.28,7.2,27.82,2.29,1.8,4.09,4.26,4.09,5.4,0,2.78-8.18,9.17-18.16,14.4-4.58,2.46-8.18,5.89-9.82,9.33-3.27,6.71-6.38,8-17.18,7-5.56-.66-8.83-.17-9.65,1-.66,1.14.49,7.2,2.62,13.42,3.27,9.82,3.43,11.78,1.47,12.93-9.49,6.05-31.09-7.86-31.09-19.64a8.44,8.44,0,0,0-4.25-7.69,19.27,19.27,0,0,1-6.55-8.18c-4.09-9.82-17.18-15.06-27-10.81-3.44,1.48-9.49,2.13-16.2,1.8l-10.64-.49.33,4.91c1,18,.82,20.79-1.31,22.91-6,5.57-25.85,7.7-31.58,3.28-5.23-3.93-20-3.11-30.43,1.8-7.2,3.27-10.15,3.92-15.55,2.78a94.58,94.58,0,0,0-17.5-.66c-10.8.5-11.13.33-11.13-3.27,0-2.13,3.6-10.14,8-17.67,10-16.86,11.45-23.57,7-33.22-3.43-7.7-17.34-21.61-24-24.22-2.29-.82-9.65-1.15-16.36-.49-17.18,1.3-25.36-2.62-25.36-12.44a6.42,6.42,0,0,0-3.44-5.08c-10.31-5.56-27.65,11.62-27.65,27.66,0,5.4-.65,6.55-4.09,7.37-2.13.49-6.71,4.25-10.15,8.34-5.89,7-10.63,9.17-12.76,5.73-3.11-4.91-22.41.33-29.29,8-1.63,1.8-7,4.91-11.94,6.71-12.11,4.58-19.14,9.65-41.72,29.95-21.77,19.8-26.18,22.42-36.33,22.42-10.47,0-13.25,4.41-12.92,20.78.16,10.31,1,13.75,5.56,22.58,2.94,5.89,4.91,11,4.25,11.62-2,2.13-6-1-8.18-6.22-2.62-6.38-11.61-14.56-20.78-19.31-7.85-4.09-10.14-4.09-13.58-.32-3.6,3.92-3.43,4.74.66,5.72,2,.49,3.11,2,2.78,3.11-1,3-6.87,3.6-11.13,1.31-2.94-1.63-3.27-2.78-2.45-8.83,1.14-7.53-1.15-19.15-5.24-25.37-3.6-5.73-5.07-1.8-4.09,11.45.66,9.33.33,12-2.13,14.57-1.63,1.8-3.92,3.27-5.23,3.27s-5.73,3.28-10.15,7.37c-4.25,4.09-8.18,6.87-8.83,6.38-1.31-1.47,1.47-10,5.23-15.22,7.86-11,8.35-26.18,1-30.28-1.8-1-3.6-2-3.93-2.12-.33-.33.65-2,2.13-3.6,4.09-4.42,2.94-12.28-2-12.93-4.91-.82-21.43,15.71-27.16,27.16-3.27,6.55-7.2,10.64-17,17.84-6.88,5.08-13.09,10-13.75,11s-1.14,4.74-1.14,8.34c.16,3.93-1.64,10.48-4.42,16.2-4.26,9.33-4.42,10.31-2.46,18.82,3.11,14.24,3.93,21.11,2.79,24.06-1,2.46-1.48,2.29-5.24-1.15-2.29-2.12-9.49-11.29-15.87-20.29a347.26,347.26,0,0,0-24.22-29.78c-8.83-9.33-13.58-15.88-15.87-21.93-3.93-10.47-7.69-13.58-11.13-9-3.27,4.42-2.94,12.44,1,20.78,4.25,9.49,4.09,15.06-.33,20.13-3.44,3.93-16,10.31-16,8.35a18,18,0,0,1,2.62-4.91c3.93-6.06,1-8.35-11.78-9.49-7-.66-12.11-2.13-14.23-3.93-2.29-2.29-5.89-3-14.24-3-6.22,0-11.78-.65-12.43-1.31-.82-.65.81-3.11,3.43-5.23,4.09-3.28,4.58-4.42,3.11-6.88s-5.56-3.27-26.18-4.74c-13.41-1.15-28.47-2.46-33.38-3.11-8.34-1-9.65-.66-16.85,4.09-5.73,3.93-8.83,4.91-11.78,4.25-7.36-1.8-13.74-16.85-8.67-20,1-.66,5.56-1,10-.82,7,.16,8.83-.33,11.62-3.93,4.09-4.91,8.18-5.4,28.47-3.43,11.29,1,15.7.81,17.5-.66,3.77-3.11,2.95-7.53-2.29-13.42l-4.91-5.4-4.58,4.26c-6.54,6.22-10.8,8-18.32,8-6.22,0-7.69-1-18-11.79-11.62-11.94-16.53-13.74-16.53-5.89,0,6.38-5.72,13.75-13.74,17.35-14.4,6.87-35.67,12.11-52.69,13.25-18,1.15-20.78,2.3-24.38,11.13-4.41,10.48-11,6.55-18-11.29-2.29-5.89-5.89-12.11-7.69-13.75-3.11-2.94-3.28-2.94-6.39.66-3.92,5.07-5.56,13.75-3.43,19.8,2,5.73-.49,7.53-6.87,5.07-5.89-2.12-8.51-11.45-6.06-22.09,1.8-8,4.58-13.26,18.16-34.86,3.6-5.56,5.73-11.13,5.89-15.54.33-3.77.5-7.37.5-8.19.49-5.89,7,5.9,14.72,26.68,8.67,23.07,18.16,31.09,37,31.09,13.74,0,19.14-2.78,23.72-12.27,3.44-7,3.6-9.33,3-30-1-25.2-4.25-41.89-11.45-57.6-7.53-16.53-8.18-19.32-4.42-21.28,4.42-2.45,3.93-5.07-2.78-11.95-4.09-4.09-7.37-6.05-10.47-6.05a76.26,76.26,0,0,1-12.77-1.8c-16.2-3.76-27.81,2.95-33.54,19.31-2.13,6.55-3.93,8.84-8.34,11-3.11,1.48-6.71,2.62-8.19,2.62-3.43,0-13.74,9.17-16.68,15.22-3.77,7.2-15.22,19-21.93,22.42-6.87,3.6-11.13,8-17,18.33-2.45,4.42-6.54,9-9.16,10.31-6.71,3.44-9.82,8.67-11,18.82-1,7.86-1.47,8.67-6.71,11-4.25,1.8-10.47,2.29-23.07,1.8-16.36-.5-17.84-.82-26-6.06-7.2-4.75-10.47-5.73-20.45-6.38S726.9,650,721.17,653c-7.19,3.6-14.72,13.26-19.79,25.2-2.29,5.08-5.4,8.51-11.13,12.28-4.42,2.94-10.14,7.36-12.43,10.14-2.46,2.62-5.4,4.91-6.71,4.91-3,0-15.87,14.24-23.73,26-7.36,11.13-7.69,20.79-1.31,35.19,2.46,5.23,4.42,11,4.42,12.43,0,1.64-2.62,6.06-5.89,10-9.82,11.78-15.87,25.36-16.2,37.15-.33,9.65-2.62,15.05-6.22,15.05-.81,0-4.09-2-7.19-4.25s-6.55-3.93-7.86-3.6-6,5.23-10.47,11.12l-8.34,10.64,3.76,2.95c2,1.47,6.87,5.07,11,7.69s8.35,5.73,9.49,6.71c3.11,2.62,1.31,10.31-4.74,19.64-4.26,6.87-4.91,8.83-3.93,15,1.14,6.88-1.31,19.8-3.76,21.44-.66.49-4.59-.65-8.51-2.62a91.64,91.64,0,0,0-18-4.91c-8.35-1.31-12.27-2.94-17.84-7.53-9.32-7.52-16.68-10-37-11.78-12.93-1.31-18.66-2.62-24.06-5.73-8-4.58-14.23-5.07-20.61-1.8a55.8,55.8,0,0,1-12.76,3.44c-10.31,1.31-18.17,5.89-20.46,12-2.78,6.87-.65,20.78,4.26,29.13,2.45,4.09,9.16,12.6,15.05,18.82L470.84,969l-10-1c-8.34-1-10.14-.66-11,1.63-.65,1.8.33,4.26,2.78,6.88,5.24,5.56,4.75,13.25-1.8,22.74-2.78,4.1-4.9,8.68-4.58,10.15.82,4.42,8.67,9,17.67,10.47,4.75.66,9.82,2.46,11.46,3.93a10.9,10.9,0,0,0,6.21,2.46c1.8,0,7.69,3.6,12.77,8.18,10.63,9.33,16.36,10.64,18,3.93,1.3-5.4-4.26-11.62-12.77-13.91-8.34-2.13-10.31-6.88-6.05-14.24,1.64-3,3.11-7,3.11-9A10.57,10.57,0,0,1,498,996c.65-1,9.32-5.56,19.3-10.31,26.67-12.44,30.93-12.11,79.2,7,13.09,5.23,26.83,9.82,30.76,10.31,8.67,1,9.65,5.73,1.47,9-2.78,1.31-8.67,6-12.93,10.8-4.25,4.58-8.67,8.35-9.81,8.35s-5.24-1.48-9.17-3.28c-18.81-8.51-30.59-3.76-22.25,9,3.11,4.75,2.29,4.91-9,2.29-6.54-1.47-7.69-1.14-13.42,2.79-7.85,5.4-17,8.67-24.7,8.83-8.18,0-11.13,1.48-12.76,5.89-1.64,4.1,1.8,40.75,5.23,55.81,1.8,8.18,3,10.64,10.15,21,3.11,4.25,3.11,4.74.32,15.54-1.8,6.88-2.45,13.1-1.8,16.37,1.8,8.18,9.49,15.71,18.33,18,11.45,3,16.85,5.07,16.85,6.87,0,.82,5.4,7.2,12.11,14.24,9.65,10.15,12.44,14.07,13.25,19.15,1.8,11.62,7.69,34,11.13,42.06,3.6,8.67,7.2,11,17.51,11a16.41,16.41,0,0,0,10.8-3.76c3.76-3.28,4.41-5.4,5.72-18.5,1.31-15.22,3.6-23.07,9.82-35.18a57.71,57.71,0,0,0,4.58-17l1-9.82,9.82-4.09c8.51-3.6,12.27-4.09,29.62-4.09,21.92-.17,25.19-1.31,25.19-9a8.13,8.13,0,0,1,3.6-6.88l3.77-2.45-3.11-23.57c-1.64-12.92-3.44-27.82-3.93-32.89-.82-11.29-1.8-10.8,27-11.46,17.83-.49,20.29-.81,24.54-4.25,10.64-8.67,21.76-12.44,38.29-13.09,15.21-.66,15.71-.49,19,3.43,1.8,2.3,6.38,5.4,10.14,7,10.47,4.26,20.62,18.66,22.58,32.57.82,6.38,2,8.18,9.33,13.74,10.47,8,16.2,10.31,23.23,9,4.42-.81,7,0,13.26,4.1,4.09,2.78,8.83,5.07,10.47,5.07s5.07,2.62,7.52,5.89c11.46,14.89,15.22,18.17,25.37,21.77,16.36,5.72,18.16,5.89,23.88,1,7.37-6.22,7.69-9.17,2-19.31-6.22-11.13-6.22-13.59.65-16.53,3.44-1.47,5.89-3.77,6.55-6.38,1.31-5.4,4.41-6.39,13.58-4.42,10.47,2.45,11.29,1,8.83-12.44-1.14-6-1.31-11.62-.65-12.27.82-.82,5.89,0,11.45,1.8,14.56,4.58,40.74,7.69,79,9.82,37.14,2,50.56,4.25,56.61,10,3.44,3.27,3.93,5.07,3.93,14.89,0,10.31.33,11.29,4.58,13.91a98.53,98.53,0,0,1,10,7.53c4.26,3.6,6.38,4.42,10.31,3.6l4.91-1.15-1.15,7.53c-1,6.38-.81,7.69,1.8,8.51,6.22,1.8,8.18,3.6,14.57,13.09,11.78,17,28,24.39,45,20.3,9.33-2.3,11.45-1.15,11.45,5.89,0,5.4,9,35.51,13.59,45.49l4.25,9.17h8c5.56,0,8.83.81,10.3,2.78,4.26,5.07,14.89,8.67,26.35,8.67,5.89,0,12.11.49,13.58,1,1.47.66,8.18,8,14.89,16.53,13.74,17.35,18.81,21.11,30.43,22.59,5.73.81,9.49,2.45,12.93,5.89,4.09,4.09,6.21,4.74,13.41,4.74,11.78-.16,22.09-4.09,41.56-16,29.29-17.84,41.4-21.93,51.54-17.68,3.44,1.47,7.86,2.62,10,2.62s8,2.62,13.25,5.73c12.11,7.36,23.56,10.64,36,10.64,13.42,0,21.77-2.62,27.66-8.35,4.41-4.58,4.74-5.57,3.76-12.6-3.11-20.79-3.11-25.7,0-29.46,4.75-5.56,11.29-6.54,26-4.09,23.56,3.93,29.28,6.38,39.59,16,16.2,15.38,24,17,47.78,9.82,7.53-2.13,14.56-3.44,15.71-2.79s4.09,3.6,6.38,6.39c4.91,5.89,15.21,9.65,21.1,7.69a34.57,34.57,0,0,0,7.86-4.26c4.25-3.11,4.25-3.11,11.45.66,6.22,3.27,9.33,3.76,23.24,3.6,15.38-.17,16.36-.49,31.41-7.69,19.15-9.33,24.71-13.42,33.71-25,10-13.09,12.76-14.08,42.38-15.55,32.23-1.47,37-3.27,47-16.85,6.39-8.68,7.2-10.64,6.22-15.72-2.62-14.89-2.62-18.49-.16-30.27,4.25-20.13,3.6-25.86-3.11-32.57-10.31-10.31-9.33-17.34,3.76-25.69,9-5.73,12.11-5.89,18.66-1.15,5.23,3.77,17.83,5.73,25,3.93,2.29-.65,8.67-5.07,13.91-10,5.4-4.91,10.63-9,11.61-9,3.11,0,12.6,7.69,29.29,23.73,21.11,20.29,32.4,30,38.29,33.06,4.42,2.29,5.89,2.29,16.85-.5,10.15-2.45,13.58-2.61,22.42-1.14,13.42,2.29,20,5.56,31.25,15.38,10.31,9,9.65,8.68,14.4,6.22a52.42,52.42,0,0,0,22.41-23.4c4.91-11,14.4-22.26,18.66-22.26,4.09,0,8.67,8.84,9.65,19.31a223.29,223.29,0,0,0,6.05,26.51c8.84,30.93,8.51,36.66-3.1,42.55-7.2,3.6-16.53,15.22-16.53,20.62,0,2,3.93,9.33,8.84,16.37,11.12,16.69,13.09,22.42,11.61,36.49-.82,9-.65,11.29,1.31,12.11,4.91,1.8,12.6-10.47,12.6-20,0-5.57,2.78-8.35,8.18-8.35,9.49,0,22.09-5.24,28.8-12.11,13.91-13.91,18-42.71,16.52-117-.81-43.86-3.43-72.82-7.52-86.57-2-6.38-7.36-16.36-21.93-40.09-11.12-18.17-17.18-33.06-15.38-37.81.66-1.63,2.95-2.62,6.55-2.62,6.54,0,12.6,5.9,31.09,30.44,6.87,9,18.16,23.08,25.19,31.1,7,8.18,18.49,22.42,25.36,31.91,7,9.33,14.24,18,16.2,19.15,5.57,3.43,7,.49,4.91-9.66-1.64-7.85-1.64-9,1-10.8,1.48-1.15,5.57-2.13,9-2.13,4.42,0,6.22-.65,6.22-2.45,0-3.28-9.49-9-14.73-9-11-.17-27.81-13.42-34.36-27.17-5.56-11.13-6.05-19.47-1.8-25.2,1.8-2.62,3.44-5.89,3.44-7.2,0-3-8.51-10.31-24.22-20.79-20.12-13.58-32.72-23.89-49.41-40.74-14.23-14.41-31.58-27.83-35.83-27.83-3.6,0-1.64,6.39,3.92,13.1,3.11,3.76,5.73,7.2,5.73,7.69a33.52,33.52,0,0,1-2.62,6.22c-3.43,7.2-9,9-28.63,9-14.4,0-16.53.33-20.45,3.76-4.42,3.77-4.42,4.09-2.46,11.46,3.77,12.93.33,15.71-10.31,8.51-7.85-5.24-9.16-5.08-9.16.82,0,2.61-.49,4.91-1,4.91s-3.27-2.62-6.22-5.73l-5.56-5.73-8.18,4.25c-9.66,4.91-13.42,4.42-13.42-2.12s9.33-40.92,13.25-49.1c4.1-8.51,4.42-19.15.82-25.85-2.12-4.1-2.62-11-2.62-40.75V842.47l26.84-27.33c21.6-22.1,27.65-29.3,31.74-37.81,5.73-11.94,8.51-15.05,16.85-18.49,5.24-2.13,6.39-2.13,12.77.82,3.92,1.64,7.69,3.11,8.5,3.11,1.48,0,24.38-44.51,24.38-47.46,0-1.14-2.78-1.31-8-.65-7.86,1-8.18,1-10.8-4.26-2.95-5.73-12.27-52.2-12.27-61.2,0-6.06,7.2-17.19,13.9-21.61,4.26-2.78,4.42-2.78,9.17,3.11,6.21,7.53,13.09,8.19,17.18,2,2.29-3.44,2.61-6.88,2-18.49-1-15.71-4.91-27.66-11.94-37-5.57-7.36-4.75-12.44,1.47-8.35,4.91,3.28,17.51,19.32,21.76,27.83,1.8,3.6,4.09,11.61,5.07,18,1.15,6.22,6.06,25,11.13,41.73,8,26.67,9.32,32.73,10.31,50.24,1.31,19.31,1.63,20.62,8.67,35.18,10.14,20.95,18.65,29.79,43.52,45.17,41.73,25.86,85.08,49.42,90.81,49.42,3,0,3.11-.82,2.13-10.47-1.47-14.24-4.91-23.57-13.91-37.48-10-15.22-10.47-16.53-7.53-23.56,3.6-8.51,3.11-10.64-4.74-16.37-7.2-5.23-12.44-13.74-12.44-20.29,0-2,2.29-7.36,5.24-11.78,6.22-9.66,5.24-12.6-5.4-15.06-15.05-3.44-19.47-9.65-19.47-26.84,0-11-.16-11-13.09-11.94-4.75-.5-6.87-2.13-13.42-10.31-4.42-5.4-8.67-10.15-9.65-10.31-.82-.33-4.09,1.63-7.36,4.41-3.11,2.79-6.39,5.08-7.2,5.08-3.77,0-11.46-9-13.91-16.37a69.37,69.37,0,0,0-7.53-14.73c-6.21-8.67-7.36-14.56-4.09-20.94a48.84,48.84,0,0,0,3.93-11.29c.82-4.26,2.29-6.39,4.42-6.71,5.23-1,5.72-2.46,3.11-10-2.95-8.67-1-21.44,4.74-29.78,3.6-5.4,4.91-6.22,13.25-9.49,4.42-1.8,4.58-2.29,3.6-9.49-.49-4.1-3.6-15.06-6.71-24.06-3.1-9.17-8.18-30.77-11.45-48.11-6.22-34.21-6.22-35.84,2.29-43.54,4.91-4.41,4.42-11.45-.82-15.54-3.76-2.95-6.54-3.44-21.76-3.44-9.49,0-20,.66-23.07,1.47s-6.87,1.64-8.18,2c-2,.49-2.45-1.31-2.62-9.17-.16-14.56-5.56-22.58-20.12-30.6-7.53-4.09-6.38-8.67,2.29-8.67,6.87,0,8.18-1.64,13.58-15.71,1.31-3.11,4.58-5.73,11.29-8.68,10.8-5.07,25.85-18.82,29.45-26.83,3.27-7.86,1.64-11.13-6.05-12.44-8.51-1.31-19-10.64-21.27-18.82-2-7.53-9.17-18.17-12.28-18.17C2264.94,242.36,2258.55,247.11,2252,252.84Zm16.69,18.33c3.93,9.49,10.63,15.87,21.27,20.29,2.62,1.14,4.91,2.62,4.91,3.27,0,1.64-17.35,13.58-27.16,18.49-9.66,4.91-12.11,7.53-13.58,14.73-1,4.42-2.13,5.57-8.68,7.86-10.14,3.27-14.39,7.36-14.39,13.42,0,5.23,3.6,9.16,18,19.63,4.09,2.95,8,7.37,8.84,9.82,1.47,3.77,1,5.08-3.6,9.82-10.31,10.64-9.65,24.22,1.31,28.64l5.73,2.29-4.75-5.07c-5.89-6.06-6.22-5.89,19.8-8.18,24.05-2.13,36.49-2.29,36.49-.33,0,.65-1.48,3.11-3.11,5.4-4.91,6.05-5.57,11.62-2.95,21.27,1.47,4.75,4.58,18.82,6.87,31.26s6.39,29.79,9.17,38.3c2.61,8.67,4.74,17,4.74,18.65,0,1.8-2.45,5.89-5.56,9.17-7.36,8.34-10.31,14.72-16.53,34.85-6.38,20.62-9.81,40.1-8.51,49.1.5,3.76,3.77,11.62,7.37,17.67s6.87,12.93,7.52,15.22c1,4.75,9.33,13.58,15.88,17,2.45,1.31,8.83,3.11,14.23,3.93s12.11,2.78,14.73,4.09c5.07,2.62,13.41,11.46,13.41,14.4,0,4.91,6.55,13.75,14.89,20.29l9.49,7.2-.32,12.77c-.33,13.42,3.43,24.87,10.3,32.4,2.46,2.29,3.44,6.22,3.77,13.42.49,9.17,1.31,11.29,9.65,23.57,9.82,14.56,13.74,23.07,11.94,25.69-1.14,2-12.92-3.6-46.63-22.26-41.88-23.4-53.83-32.89-63.48-50.73-6.22-11.94-9.49-24-11.78-45-.82-8.84-4.26-24.39-7.53-35.19C2291,636.76,2286.7,619.9,2286.7,613c0-11.78-2.95-17.84-15.71-32.73-6.87-8-13.58-16.2-14.89-18.33-4.91-7.53-13.09-6.71-18.49,1.8a21.5,21.5,0,0,0,.82,23.89c4.25,5.73,10.63,23.73,10.63,29.63,0,3.92-1.8,3.92-9-.33-5.4-3.28-6.06-3.28-9.82-.82-16.2,10.64-27.65,34-23.89,49.42,5.24,22.09,14.07,51.88,17.51,59.41,2.12,4.91,3.6,10.14,3.11,11.78-1.48,4.42-8.84,9.65-13.42,9.65-9.66,0-38.12,20.3-38.12,27,0,4.42-8.68,15.54-29.13,37.31-10.8,11.62-21.43,24.38-23.72,28.64-5.73,10.47-7.69,24.87-6.55,46.64,1,20.62-.82,28.15-8.34,33.22-6.71,4.25-15.88,2.45-76.25-14.89-65-18.66-95.23-26.35-140.39-36l-33.38-7-31.9-31.59c-17.51-17.51-33.87-35-36.49-39-4.58-6.87-4.91-8.34-4.91-23.07V751.8l5.4-1.63c2.78-1,17.84-6.71,33-12.6,70.85-27.82,159.37-49.1,219.25-52.86,13.58-.82,17.35-.49,21.77,1.8,2.94,1.47,5.23,3.27,5.23,3.93s2.62,4.42,5.89,8.34c15.22,17.68,40.42,19.8,55.63,4.42C2139,695,2141.73,686,2140.75,671c-1-12.93-3.77-17.51-15.22-25-9.82-6.54-10.63-8-10.63-19,0-36.17,29.12-117,49.9-138.45,5.56-5.73,7.85-6.87,15-7.69,18-2,27.65-11.29,27.33-26.35-.17-16-10.8-27.16-25.69-27.16-8.84,0-14.73,2.62-20.78,9-3.76,3.93-4.09,5.89-4.91,23.4-.82,18.82-1,19.31-7.2,29-20.45,31.58-36.49,74.62-44.34,118.64-2.13,12.28-4.75,24.22-5.89,26.68s-5.56,6.71-10,9.49c-8.18,5.24-16,15-20.13,25-2.78,6.54-2.29,6.38-35.18,10a833.93,833.93,0,0,0-212.37,51.88c-35.18,13.58-42.22,15.22-51.22,11.94-9.65-3.27-16-3.11-24.54.82-10.47,4.75-17,4.09-29.29-2.45-21.76-11.95-59.39-30.11-75.59-36.66-9.33-3.76-19.47-8.35-22.58-10.15l-5.56-3.43,4.74-3.44a136.72,136.72,0,0,0,14.24-12.93c9.32-9.33,9.65-9.49,18.81-9.49a40.77,40.77,0,0,0,18.49-4.26c10.31-4.9,20-5.4,30.93-1.63,11.29,4.09,20.94,3.27,30.59-2.29,10.31-5.73,15.38-11.95,15.38-18.17,0-5.56,5.57-9.65,17.51-13.09,7.36-2,7.53-2,12.11,3a32.85,32.85,0,0,1,6.38,14.23c2.29,11,9.65,18.5,23.56,23.73,9.33,3.44,24.54,4.58,28.31,2.13,1.14-.82,4.25-5.73,6.87-11.13,6.22-12.76,17.83-25.53,27.49-30.11,9.81-4.42,25-19,25-23.89,0-2-3.27-7.2-7.36-11.79-4.09-4.41-7.36-8.83-7.36-9.65,0-3,11.45-16.37,15.54-18.17a10.51,10.51,0,0,1,8.34-.32c10.48,4.09,21.44-.66,26.51-11,3.11-6.54,4.58-6.87,12.76-3.6,4.42,1.64,7.53,1.31,25.2-3.6,11.13-2.94,21.76-6.87,23.89-8.51,2.13-1.47,6-7,9-12.27,7.52-13.26,12.43-19.48,18.65-23.24,7.2-4.42,10.47-4.09,21.93,1.8l9.81,5.07,7.53-3.6c8.34-4.09,14.89-12.11,28.31-34.36,10.47-17.51,16.52-23.41,29.78-28.64,13.74-5.4,18-9.49,18-17.35,0-8.67-6.7-15.55-16.85-17-4.25-.65-7.69-1.64-7.69-2.13,0-1.47,8.34-15.38,18.16-30.11,10.47-15.54,21.27-24.87,55-47.78,30.11-20.3,33.05-21.44,50.88-20.95,14.57.33,15.39.16,19.15-3.93,2.29-2.45,4.09-6.38,4.09-8.83,0-4.42-4.91-10.15-10.15-12-1.63-.66-2.94-1.8-2.94-2.62,0-2.62,16.52-16.53,19.63-16.53C2264.12,262,2266.24,265,2268.7,271.17ZM951.06,548.72c2.13,2,3.77,4.9,3.77,6.71,0,1.63,3.27,11.45,7.36,21.76,5.07,12.77,8,23.08,9.16,32.24.82,7.36,2.78,19,4.09,25.69,3.11,14.57,1.15,22.91-6.38,28.48-6.54,4.91-17.83,4.42-23.4-.82-4.58-4.09-20.61-35.19-23.89-46.15-2.61-8.67-7.52-11.78-15-9.33-5.4,1.8-5.89,2.46-8.51,14.08-2.29,10.63-3.76,13.58-11.12,22.09-23.4,26.84-20.13,69.39,5.23,69.39a21.27,21.27,0,0,0,11.46-3.77l5.23-3.76v3.44c0,2.29-8.51,12.27-24.87,29.29-13.74,14.07-27.65,29.46-30.76,34-3.11,4.74-8.18,9.82-11.13,11.45-4.74,2.62-5.72,2.62-9.49.49-2.45-1.31-8.5-9.49-13.74-18a289.33,289.33,0,0,0-21.6-29.95c-21.6-26.18-20.94-24.87-20.94-37,0-15.22,2-17.67,16-19,21-2.13,32.07-7.86,34-18C828.35,652,840,636.6,860.74,616.3c11-10.8,21.93-22.58,24.22-26.18,5.24-8.67,6.87-9.82,17.51-13.42,8.83-3,9.16-3.27,16-16.2,3.93-7.37,8.67-14.24,10.64-15.22C934.37,542.66,946.64,544.46,951.06,548.72Zm618,29.45c15.21,15.71,21.6,17.68,30.76,9.66,2.94-2.46,6.87-5.08,8.67-5.73,3.93-1.15,10.14,2.62,15.87,9.66,10.47,12.6,10.64,19.63.49,34.36a157.32,157.32,0,0,0-11.12,18.49,139.87,139.87,0,0,1-12.11,18.5c-4.75,6.22-8.67,13.42-9.33,16.85s-2.13,6.39-3.27,6.88c-1.31.49-6.55-.17-11.78-1.64-12.27-3-35-6.55-69-10.8-14.56-1.8-28.31-4.09-30.6-4.91-5.4-2.13-18-13.75-22.25-20.78-4.25-6.71-5.07-5.73,14.89-15.88,17.67-9,41.07-17.35,48.76-17.35s20.62-7.36,28.47-15.87c4.74-5.4,5.89-8.18,6.87-16.36.66-5.4,1.64-10.31,2.13-11C1558.91,570,1562.68,571.79,1569.06,578.17Zm55,84.61c0,3-13.25,16.53-16.19,16.53-6.06,0-.33-11.13,8.67-16.53C1622.89,658.85,1624,658.85,1624,662.78Zm-316.11,22.09c.33,1.64-1.64,7.86-4.26,13.91-2.78,5.89-6.05,17.35-7.52,25.53a278.22,278.22,0,0,1-7.2,30.28,232.37,232.37,0,0,0-6.71,27.82c-3.11,19.31-6.22,28.31-11.13,33.06-7.36,6.7-11.94,8.34-23.39,8.18-12.28-.33-18.33,2.12-19.64,7.85-2.29,9.17,4.26,17.84,18.82,24.71,11.94,5.73,15.54,5.9,26.18.82,16.52-7.69,33.38-27.16,37.47-43,2.61-10,5.72-10.64,14.07-3.11,7.52,6.88,10.63,7.2,15.87,2.29,5.73-5.23,5.23-15.22-1.31-24-5.07-7-15.38-13.09-22.42-13.26-5.89,0-6-4.25-.32-16.69,2.94-6.55,5.72-15.22,6.21-19.64.33-4.25,1.48-7.85,2.13-7.85.82,0,4.58,2.12,8.35,4.91,9.32,6.87,16.85,6.71,20.61-.17,4.91-9.16,12.6-18.65,15.71-19.14,1.64-.33,6.54,2.94,12.27,8.34,11.29,10.8,15.71,12.6,20.29,8,4.75-4.91,4.25-15.55-1.31-26.35-7-13.42-3.76-26.35,6.71-26.35,2.13,0,7.2,3.77,13.09,9.82,5.24,5.4,10.8,9.82,12.43,9.82,5.08,0,6.06,4.75,2.62,14.4-9.49,27.17-18.81,82.16-24.38,144.34-1.14,12.11-2,22.26-2.12,22.42s-13.75,4.09-30.44,8.68c-35,9.65-76.9,23.23-107,34.69l-21.1,7.86L1206.15,911c-47.78-23.73-75.76-35.68-110.77-47.46-54.49-18.17-104.56-29-174.92-37.81-46.46-5.89-48.43-6.54-53.34-18.16a62.37,62.37,0,0,0-8.67-12.76c-5.72-6.71-6.38-8-5.07-12.44,2-6.88,8.18-14.4,29.12-34.7,21-20.45,31.09-27.49,39.76-27.49,5.08,0,7.2-1.14,12.44-6.71,8.67-9.16,14.23-11.78,26.18-12,8.83-.16,11,.5,17.83,5.24,8.18,5.89,11.13,6.06,21.44,1.8,5.23-2.13,5.4-2,11.78,4.91l6.71,7.2,9.32-1c5.24-.49,17.84-2.13,28.15-3.6,11.94-1.64,20.45-2,23.72-1.15,2.78.82,10.15,5.24,16.2,10,6,4.58,11.62,8.34,12.27,8.34,13.58.17,38.78,9.66,40.58,15.39,1.47,4.74,3.6,5.89,11,5.89,10.64,0,23.73-8.68,26.51-17.68.49-2,2-3.6,2.94-3.6,3.6,0,23.24,22.59,32.07,37.15,13.75,22.26,20.13,27.66,28,23.4,6.55-3.43,8.84-11.13,8.18-26.18-1.14-28.8-.82-32.08,5.73-45.33,8.18-16.69,32.56-41.9,39.6-41.08C1305.79,681.6,1307.59,682.91,1307.92,684.87Zm220.23-1.47c61.2,7.2,121.57,26.51,171.8,55.15,31.09,17.84,35,24.55,21.77,36.82-3.77,3.6-20.13,15.38-36.33,26.51-16.2,11-32.4,22.26-36.16,24.88-5.23,3.92-9,5.23-17,5.89-13.08,1.31-18.16-1.31-27-13.75-29.13-40.91-62.34-75.28-103.74-107.35-21.43-16.53-31.9-26.51-30.43-28.81C1472.52,680.13,1503.45,680.45,1528.15,683.4Zm-530,9.82c0,3.76-1,5.24-4.41,6.38-6.22,2.13-13.42-.49-14.07-5.24C979,690,984,687.49,992.46,688,997.69,688.31,998.18,688.8,998.18,693.22Zm483.67,10.31c43.85,28.8,106.84,93.93,120.91,125.19a36.73,36.73,0,0,1,3.28,12.93c0,9.33-3.6,10.8-35.51,14.56-34.85,3.93-41.23,4.91-102.59,14.73-40.42,6.55-50.89,7.69-52,6.06-4.75-6.88,8.83-112.27,19.14-147.78,5.24-18.16,10-25.53,19.15-30.11C1464.34,694,1468.43,694.69,1481.85,703.53Zm-775.56,6.22c14.07,18.33,31.9,23.24,51.7,14.56,5.73-2.62,11-3.93,13.25-3.27,8.84,2.13,31.09,29.29,44.67,54.49l5.56,10.15-10.14,9.49c-5.56,5.08-11.29,11.62-12.6,14.57-2.78,5.56-5.73,6.87-34.36,14.4-36.65,9.49-67.74,26.51-100.63,54.82-17,14.57-28.79,22.26-36.65,23.73-7,1.31-7.52-.16-3.6-9.49,4.26-10.31,3.28-14.08-6.54-25.37-12.6-14.4-12.11-18.82,1.47-13.91,12,4.42,17.51-1,21.6-21.6,2.62-12.76,8.67-27.33,12.11-29.46,1-.65,4.09-4.09,6.71-7.69,6-8.67,6-14.89-.17-29.13-5.56-12.6-5.89-16.2-2.62-22.58,2.13-3.93,40.58-42.88,42.38-42.88C698.76,700.58,702.36,704.67,706.29,709.75ZM1341.79,725c0,5.07-3.44,6.22-5.73,1.8-2.13-3.93-.82-6.88,3-6.22C1340.64,720.88,1341.79,722.68,1341.79,725Zm-28.64,10.14c0,2.62-2.94,11.62-6.38,20-8.67,20.62-9.32,24.71-5.23,28.8a13.83,13.83,0,0,0,8,3.6,27.06,27.06,0,0,1,7.69,1.31c2.62,1.15,2.46,1.47-2,2.29-2.78.49-7.85,3.77-11,7-5.07,5.23-5.89,7-4.91,11,1.15,5.4-3.11,12.6-14.23,24.06-7.53,7.85-22.58,16.36-28.48,16.36-2.94,0-22.08-11.94-22.08-13.74,0-.33,6.05-.33,13.58-.33,12.92.16,13.74,0,21.59-5.73a63.5,63.5,0,0,0,13.91-14.89c3.11-4.91,7-10.8,8.51-13.09,2.78-3.77,2.78-4.58.33-11.46-2.29-7-2.29-8.51.33-18.82,4.74-19.31,14.39-41.4,18-41.4C1312.34,730,1313.15,731.84,1313.15,735.11Zm428.53,54.17c8.51,5.07,10.14,5.4,22.25,5.07,11.62-.32,13.74.17,19.63,3.93,6.88,4.58,63.49,59.41,62.34,60.55-.32.33-6.71-.16-14.23-1-7.53-1-41.4-2.78-75.1-4.25-77.23-3.11-113.23-5.41-115.19-7.37-1-1-.66-2.45.65-4.09,4.58-5.56,52.52-38.79,78.54-54.33C1728.42,783.06,1731,783.23,1741.68,789.28ZM917.36,831.5c89.82,12,168.36,31.59,230.7,58.1,29.13,12.44,75.27,36,82.79,42.55l6.06,5.07-14.73,8.35c-8,4.41-21.92,12.11-30.92,16.85-36.49,19-83.94,53.84-110.45,80.85-6.71,6.87-12.76,12.43-13.25,12.43-.65,0-4.25-9.82-8-21.76-15-47.3-37.47-85.26-71.17-120.45-25-26-45.16-40.91-81.65-60.22C859.27,828.07,861.07,824.14,917.36,831.5ZM795.3,834.12c5.89,9.17,5.07,12.93-8,36.66-26,46.31-38.45,88-44.34,147-3.93,39.11-7.37,42.87-44.18,49.58-44,8-69.7,19.64-103.08,46.48C555.59,1146,535.14,1142.93,532,1104a131.91,131.91,0,0,0-2.62-18.82c-2.29-7.86-2.13-15.87.33-17.35,1.14-.82,5.89-1.8,10.8-2.45,4.74-.66,10.63-2.62,12.92-4.26,9.66-6.87,11-7.2,22.75-6.22,9.65.82,12.11.66,13.9-1.63,5.9-6.88,6.88-7.37,14.08-7.37,7,0,8.34-.65,17.83-9.82,5.73-5.4,12.93-11,16-12.27,6.7-2.94,8.34-7.2,7-18.49-1.63-13.42-4.25-23.24-8.67-33.22-5.07-11.13-4.75-11.62,7.36-19.31,4.42-2.95,9.33-7.86,11.46-11.79,3.92-6.87,3.92-10.31.81-29.62-1-5.89-.49-6.71,11-18.65a203.94,203.94,0,0,1,71-47.3c11.45-4.74,46.79-15,51.7-15.38C791.2,829.87,793.66,831.83,795.3,834.12Zm92.11,18.82c66.76,26.51,136.79,105.39,160.52,180.34,2.78,8.68,5.07,17.19,5.07,18.82s-3.11,5.89-6.71,9.33c-11.62,11.13-14.07,21.77-8,33.71,3.93,7.69,16.2,16.2,23.4,16.2,7,0,10.8-2.45,21.11-13.58l9.32-10.15,11.13.17c19.8.16,44.34,8.84,65.45,23.24,11.29,7.69,34.68,31.91,38.61,39.76,2.46,5.24,2.46,5.89-.16,10.31-4.09,6.71-13.26,11.62-19.15,10.15-7.19-1.8-19.47-15.38-22.74-25-3.6-10.8-6.54-14.73-14.07-18.49-12.11-6.22-24.71-8.35-58.9-9.82-40.58-2-55.31-3.76-74-9-7.85-2.29-15.71-4.09-17.51-4.09-5.4,0-11.94,6.87-13.09,13.74-.49,3.6-2.29,7-3.76,7.7-1.64.81-4.25,2.12-5.73,2.78-1.63.82-4.41,3.93-6.05,7.2a28.47,28.47,0,0,1-8.84,8.84c-10.3,5.56-10.3,5.56-2.29,34.2.82,3.27.82,3.27-2.62.16-2-1.8-7-3.93-11.29-5.07-6-1.47-8.67-3.27-11.12-7.2-7-11.46-12.93-16.2-27.49-22.09-8.34-3.44-17-5.9-20.94-5.9-9,0-16-7-21.11-21.27-3.27-9.16-5.89-12.6-17.83-24.55-7.86-7.69-17.51-15.71-21.77-17.84-7.36-4.09-7.69-4.09-25.36-2-13.74,1.64-18.81,1.8-21.6.33-1.8-1.15-3.43-2.62-3.43-3.44s-3.93-5.73-8.84-11c-4.74-5.24-9.65-12.28-10.8-15.88-2.45-7.53-2.45-33.87.17-50.4,7.52-50.08,34.85-119,51.37-129.94,2.62-1.64,10.31-3,22.75-3.93,17.51-1.14,19.31-1.63,25.69-6.38C865.82,846.39,871.38,846.39,887.41,852.94Zm875.7,3.93c64.14,4.74,78.87,7.2,90.32,14.73,7.69,5.07,30.43,35.35,49.25,65.46,26.83,42.87,55,103.42,66.92,143.85l3.6,12.43-4.91,5.08c-7.2,7.52-13.09,10.14-20.62,9-3.43-.66-20.12-5.57-37-11-45.49-14.56-97.19-27-142.35-34.2-30.6-4.91-37.64-7.2-44.84-14.89-3.43-3.44-7.19-6.39-8.5-6.39-3.44,0-6.55-6.54-15.87-34-11-31.92-22.58-60.23-40.58-97.87-8.18-17.34-15.71-34.85-16.86-39-2.45-9.49-.49-12.11,11.13-13.91C1666.41,853.92,1727.77,854.25,1763.11,856.87Zm-162,5.07c0,1.47-11.78,14.73-26.18,29.62-43.2,44.35-76.41,85.92-107,133.87-9.49,14.89-18.49,27.16-20.94,28.47-3.44,2-5.73,2.13-13.09.33-14.08-3.11-14.08-3.11-16-26.35-1.63-19.31-6.71-139.43-6-140.08.16-.17,12.92-2.95,28.14-6.06,46.8-9.82,129.92-21.93,151-22.25C1599.33,859.32,1601.13,859.81,1601.13,861.94Zm31.08,13.75c19.15,22.25,68.07,139.59,66.76,159.88-.49,7.53-.82,8-8,11.62-8.18,3.93-9.81,4.09-103.24,8.51-42.54,2-68.39,4.75-100.3,10.64-28.14,5.24-29.78,5.24-32.23,0-2.29-5.24,1-12.6,15.7-35.18,34.86-53,101.12-131.25,131.88-155.31,8.51-6.71,9.33-7,17.18-6.05C1626.16,870.61,1629.11,871.92,1632.21,875.69Zm259.67-2.46c43.2,8,107,24.88,159.86,42.39,33.05,11,44.5,16.2,45.81,21.11.49,2,3.44,6.71,6.55,10.47,9.16,10.48,9.65,13.26,5.89,30.44-3.93,18-4.26,30.93-.82,33.88,1.63,1.31,7.2,2,15.71,1.8,11.94-.17,13.58.16,18.16,3.93,8,6.87,27.16,4.09,35.83-5.08,3.27-3.6,3.93-5.73,3.6-13.91-.33-8.84,0-9.82,3.44-11.29,7.2-2.62,18,1.31,30.27,11.13,9.81,8,15.7,16.69,19.79,29.29a96.74,96.74,0,0,0,8.68,18.49c17,25.21,20.78,31.26,24.54,41.08,7.85,19.8,9.65,35.35,10.47,92.3,1.15,76.26-1.8,101.13-13.42,112.1-3.27,3.11-5.89,3.6-19.3,3.76-13.42.33-16-.16-19.15-2.94-5.23-4.75-9.81-14.57-9.81-21.11,0-5.08.81-6.06,9-10.64,4.9-2.78,9.65-6.55,10.79-8.51,3.28-6.22-1.3-43.2-7.36-60.22a46.45,46.45,0,0,1-2.62-13.59c0-7.85-3.27-14.23-9.81-20-6.88-5.73-11.78-6.71-17.67-3.6-7,3.6-17.51,16-19.64,23.73-2.29,7.2-12.11,16.53-17.51,16.53-2,0-6-2.62-9.16-5.9-10.14-10.63-12.43-11.29-41.72-11.29-30.76,0-28,1.15-54.49-22.91-20.61-18.66-33.7-29-43-33.71a35.56,35.56,0,0,1-11.45-9.66c-2.13-3.11-7.37-8.34-11.78-11.62-10.64-8-13.09-12.27-20-34-16.52-52.86-56.45-127.49-96.37-180.18-10-13.26-11.78-16.37-9.16-16.37C1867.83,869.14,1879.45,870.94,1891.88,873.23ZM1403.64,895c1.47,1.64,3.43,6.54,4.25,11,3.6,18.82,5.07,135,1.8,144.34-4.09,11.62-12.43,7.86-40.09-17.67-24.87-22.91-56.12-49.75-84.42-72.34-13.26-10.47-24.38-20.12-24.88-21.43-1.47-3.6,12.93-9.66,59.07-25C1389.56,890.58,1398.07,888.78,1403.64,895Zm-911.7,12.44c4.26,2.94,9,4.25,18.66,5.07,22.08,1.8,30.43,3.93,37.63,9.82,9.16,7.36,12.11,8.67,22.25,9.82,13.09,1.63,34.36,12.27,40.74,20.62,6.06,7.36,19.64,33.05,19.64,36.65,0,3.93-3.93,3-28.47-6.7-33.38-13.42-46-17-58.09-17-9.49,0-12.76,1-29.78,9-10.47,4.91-19.8,9-20.78,9-.82,0-3.6-4.09-6.05-9-2.46-5.08-10.31-15.55-17.51-23.41-13.91-14.89-19.14-23.89-19.31-32.4,0-6.54,2.46-8.51,12.44-9.82a50.06,50.06,0,0,0,12.11-3.27C481.47,902.69,485.4,903,491.94,907.44Zm774.26,46.64c29,19.8,82.13,65,112.4,95.73l13.75,14.08-2,7.69c-3.6,13.58-10.47,23.73-18.49,27.82-3.92,2-24.87,12.44-46.46,23.07s-44.84,22.75-51.54,26.84c-17,10.15-17.19,10.15-30.27,6.06-17.51-5.57-18-5.9-39.11-26.68-38.29-37.47-53.83-46.31-94.25-53.51-20.61-3.77-30.1-7.86-33.7-14.89-2.29-4.42-2.13-4.91,4.42-12,27.81-30.11,97.51-76.92,146.93-98.52C1245.74,942.13,1249.18,942.46,1266.2,954.08ZM484.25,991.22c4.09,5.57,2.78,16.53-2.45,20.79-4.26,3.44-11.95,2.78-15.87-1.15-2-2-2-2.78.16-6.05a37,37,0,0,0,3.6-9.66C471.65,985.82,478.85,984,484.25,991.22Zm1198.69,72.34a35.37,35.37,0,0,1,11.12,6.87,48.59,48.59,0,0,0,11.13,7.37,13.93,13.93,0,0,1,7.85,7.69c7.37,17.51,19,122.08,19,169.54,0,21.6,0,21.93-4.41,26.35-7.53,7.52-47.45,21.11-55,18.82-2-.49-7.85-5.08-12.93-10-5.23-4.74-13.41-10.63-18.32-12.92-8.84-3.93-40.74-12.11-48.11-12.11-5.07,0-18.65,12.92-22.41,21.43-2.78,5.89-2.78,7.53-1,15.88,4.09,17.84,4.09,17.84,0,20.13-4.59,2.45-17.68,2.45-27.82,0-3.93-1-13.74-5.24-21.93-9.17-18.65-9.49-30.59-12.11-41.39-9.33-4.26,1.15-23.24,9.82-42,19.15-19,9.49-35.18,17.18-35.84,17.18s-4.58-2.94-8.67-6.54c-6.87-6.38-7.36-6.55-15.21-5.57-6.55.82-8.35.49-9.17-1.47-4.25-11.13,22.26-117.34,42.22-168.4,9-23.23,13.74-29.62,23.89-32.4,13.25-3.43,22.09-14.73,25.69-32.56,1.3-6.22,3.1-9.82,5.89-12,8-6.06,61.68-15.22,111.09-19.15C1602.11,1060.45,1675.57,1061.27,1682.94,1063.56Zm101,7.69c61.69,10.8,146.11,34.69,163.78,46.31,6.55,4.26,4.75,9.33-8.67,22.42-19,18.49-21.43,27.5-10.47,38.46l6.87,6.71-1.31,11c-.81,6.06-1.47,18.66-1.8,28-.65,27.49-4.74,30.6-43.52,32.73-14.4.82-27,2.29-29.29,3.44-2.12,1.14-9.16,7-15.38,12.92-24.7,23.24-36.65,30.44-54.32,32.24-16,1.8-25-2-40.25-16l-12.6-12-1.63-39.28c-2.13-47.62-5.4-85.91-10.64-121.92-4.42-29.62-4.91-40.09-2.45-46.8l1.8-4.42,18.32,1C1752.48,1066.67,1771.13,1069,1783.89,1071.25ZM720.68,1082.54c2.79,3.27.82,6.22-7.2,11.29-4.25,2.46-8.18,6.39-9.16,8.84-2.62,6.87-.33,23.73,5.4,40.42l4.91,14.73-4.42,3.27a24.83,24.83,0,0,0-6.87,8.84l-2.29,5.73-14.56-1c-12.76-1-14.89-.66-18.49,2.12-2.13,1.8-7.2,3.6-11.13,4.26a21.07,21.07,0,0,0-12.43,6.54c-5.08,4.91-5.4,5.9-5.4,16.53,0,9.82-.66,12.28-5.07,19.31-7.2,11.3-8.19,14.57-9.66,30.93-1.31,15.88-3.6,19.81-8.51,14.08-4.09-5.07-9.32-20-11.29-33.22-2.29-14.08-6-21.11-19.3-36-6.55-7.2-10-12.6-10-15,0-2.29.65-4.09,1.47-4.09,2.45,0,4.74-8.35,5.72-20.46,1.15-14.24,4.91-20,23.4-36,22.42-19.31,46.31-31.91,74.94-39.28C697.61,1079.76,717.74,1078.94,720.68,1082.54Zm678.05,33.22c7.36,6.88,13.58,13.42,13.91,14.57.32,1-4.26,15.54-10,32.07-13.25,37.48-23.56,74.3-33.05,117.18-3.92,18.16-7.69,33.87-8.18,34.69-1.47,2.45-3.11,1-12.92-11.29-11.62-14.57-17.35-17.35-32.73-15.88l-11.62,1.15-5.72-6.71c-4.42-5.07-7.69-7-13.91-8.67-7.85-2-8.34-2.29-11.78-11-2-5.07-5.07-16.85-7-26.18l-3.43-17.19,3.6-15c3.6-14.73,3.6-15.06.65-25.86-2.78-10.47-2.78-10.8.17-14.07,3.92-4.42,32.88-21.6,55-32.9,20.13-10.14,58.58-27.32,61.52-27.32C1384.33,1103.16,1391.2,1108.89,1398.73,1115.76Z"/><path class="cls-1" d="M2094,293.58c-8.26,8.79-4.79,30,4.79,30,3.3,0,4.95-1.66,7.92-7.47,4-8.13,5-21.24,1.65-24.56S2097.92,289.26,2094,293.58Z"/><path class="cls-1" d="M1258.35,388.4a21.83,21.83,0,0,0,.16,8.51c1.3,5.4,9.25,18.48,13.79,22.57,3.24,2.94,3.24,2.78,3.24-3.76,0-3.76.65-6.87,1.62-6.87,3.9,0,17.85-15.7,17.85-20.28,0-.33-3.9-.33-8.76.16-6.65.65-9.73.33-12.49-1.8a18.48,18.48,0,0,0-9.08-2.62C1260.46,384.31,1259.16,385.13,1258.35,388.4Z"/><path class="cls-1" d="M1313.53,398.32c-5.85,3.61-12.36,11.49-11.54,13.95s8.13,3.94,12.19,2.46c5-2,4.56-4.76-.81-4.76-3.58,0-4.07-.33-2.11-1.64,1.3-.82,6.66-1.64,11.87-1.64,10.57,0,13.34-2.79,8.46-8.21C1327.85,394.38,1320,394.21,1313.53,398.32Z"/><path class="cls-1" d="M1286.06,414.29c-3.15,3.62-3.81,5.59-2.48,5.92,1.16.49,3.48-1,5-3,1.82-2.47,3.81-3.45,5.63-2.8,2.15.83,2.32.5.5-2.13C1292,407.87,1291.2,408.2,1286.06,414.29Z"/><path class="cls-1" d="M1328.84,416.39a39.86,39.86,0,0,1-13,5.75c-13.87,3.28-16,4.11-16.8,6.24-1.8,5.75,22.35,9,33.44,4.44,5.22-2.3,6.2-2.3,8.65,0,1.46,1.31,3.42,2.46,4.4,2.46,2.61,0,10.44-9.86,9.3-11.66-.49-.82-4.08-1.48-8.16-1.48-5.87,0-7.18-.49-7.18-3,0-2.79-2.93-7.06-4.73-6.9A32.2,32.2,0,0,0,1328.84,416.39Z"/><path class="cls-1" d="M1492,450.45c-5.9,6.37-7.38,9.79-8.69,20.57-.66,5.55-2.13,10-3.61,10.78-4.43,2.45-1.8,8.82,4.76,11.92,4.1,2,5.9,3.75,5.25,5.22-1.15,3.11,10.33,14.54,19.18,19.11,6.56,3.26,10.17,3.43,19.19.65,3.61-1.14,3.61-1,2.62,8.33-1.8,14.21-1.64,14.37,1.48,15,1.64.33,9.35-2,17.22-5.06s15.58-6,17.06-6.53c1.8-.65,2.46-2.12,1.8-4.41-1.31-4.74-14.1-18.61-21.32-23l-5.9-3.6-4.76,5.23c-5.74,6.37-7.87,5.39-7.87-3.59,0-7.19-2.63-13.23-10.5-24.17a32.67,32.67,0,0,1-6.07-15.51c-.65-5.06-2.45-10.45-4.09-12.25C1503.63,444.57,1496.9,445.22,1492,450.45Zm10.17,20.08c0,7.84-2.62,10-5.08,3.76a10.48,10.48,0,0,1,0-8.33C1499.53,460.73,1502.15,463,1502.15,470.53ZM1510,491.6c7.22,5.22,9.35,9.63,7.87,15.84-2.29,9-11.48,2.12-16.56-12.58-1.31-3.75-2.46-7-2.46-7.35C1498.87,485.55,1504.12,487.51,1510,491.6Zm41.33,32.49c0,3.43-2.95,6.86-6.07,6.86-3.28,0-4.43-4.57-2.13-7.35C1546.1,520.17,1551.35,520.5,1551.35,524.09Z"/><path class="cls-1" d="M1868.55,465.11c-9.57,3.53-22.7,10.61-22.7,12.21,0,3.06,8.27,6.75,14.43,6.75,8.59-.16,19-5.62,22-11.73C1886.87,463.82,1880.87,460.61,1868.55,465.11Z"/><path class="cls-1" d="M1813.47,484.14a24.62,24.62,0,0,0-6,5.64c-1.46,2-5,4.16-8.28,4.82-10.23,2-13.16,11.79-7.15,23.75,3.57,7.14,9.91,13,15.76,14.45,5.68,1.5,13-2.32,22.25-11.62,15.59-15.78,19.49-31.23,9.09-36.71C1833.45,481.48,1818.67,481.31,1813.47,484.14Zm20.79,16.94c0,2.82-3.41,7.8-10.88,15.78-5.85,6.47-11.21,11.46-11.86,11.29-.65-.33-3.9-3.82-7.31-7.8l-6-7.48,6.83-2c3.73-1.17,8.44-3.66,10.39-5.48,4.39-4.16,12.34-8.48,16.08-8.48C1833.29,496.92,1834.26,498.25,1834.26,501.08Z"/><path class="cls-1" d="M1836,534.69c-1.65,2.65,9.75,15.77,15.54,18.26,4.46,1.83,5.79,1.5,12.56-2.32,9.26-5.48,12.07-10.13,7.77-12.45-3.63-2-22-5.15-29.59-5.15C1839.43,533,1836.46,533.86,1836,534.69Z"/><path class="cls-1" d="M1315.82,545.08c-1.8.5-6,1.81-9.48,3.13-4.24,1.64-13.07,2.3-29.41,2.3-15.85,0-26.14.82-32.19,2.47-4.9,1.32-12.25,3.45-16.34,4.44-5.23,1.32-8.33,3.46-10.62,6.91-1.79,2.63-9.47,8.72-17.15,13.16-7.85,4.77-14.55,10-15.53,12.17a8.83,8.83,0,0,1-6.37,4.78c-2.61.49-9.8,5.26-16.18,10.69-6.21,5.26-12.74,9.54-14.54,9.54a12,12,0,0,0-11.27,7.9c-1.31,3.45-.82,6.08,2.77,14s4.09,11.35,3.27,17.11c-.49,4.11-.16,8.72.66,10.52,2.45,4.28,18,14.65,22.22,14.65,4.9,0,5.72-3.29,4.57-16.45-1-10.2-.65-12.34,3.27-20.4,5.56-11.35,23.86-29.12,32.84-31.75,3.6-1.15,10.14-5.1,14.71-8.89,8.66-7.23,15.69-11.35,19.28-11.35,1.15,0,5.56-2.3,9.81-5.1,9.47-6.25,13.56-7.4,39.86-11.35,28.44-4.11,38.08-8.88,38.08-18.92C1328.08,547.55,1323.17,543.77,1315.82,545.08Zm-46.57,23.36c-23,7.41-69.44,34.88-88.72,52.81-11.28,10.36-15.2,17.44-17.32,31.42-1,5.59-2.45,11-3.27,11.84-2.78,2.8-5.23-.49-4.25-6.08.65-3,0-9.38-1.31-14.31-1.14-4.94-2-9.88-1.47-11,.33-1.15,4.09-3.78,8.17-5.92a57.66,57.66,0,0,0,12.59-9c2.61-2.79,7.51-5.92,10.78-6.74a14.73,14.73,0,0,0,9.31-7.24c4.41-7.57,37.59-30.27,51-35a66.7,66.7,0,0,1,22.06-3.62l11.44.17Z"/><path class="cls-1" d="M2323.69,611.14c-1.69,5.63.77,16.41,4.77,21.21l3.54,4.48.15-9.28c0-10.78-2.46-19.72-5.38-19.72C2325.54,607.83,2324.16,609.32,2323.69,611.14Z"/><path class="cls-1" d="M1638.93,631.82c-5.22,5.11-4.89,8.35,1.14,9,4.73.68,13.37-6.64,12.06-10.39C1651,626.54,1643.66,627.22,1638.93,631.82Z"/><path class="cls-1" d="M531.56,658.85c-1.49,3.83,9.42,25.83,16.7,34.16,6.78,7.5,11.9,8.67,16.37,3.67,11.24-12.5-4.14-37.5-24.47-39.67C534.21,656.35,532.39,656.68,531.56,658.85Z"/><path class="cls-1" d="M2436.62,849.11c-3,10.54.84,25.24,5.71,21.41s4-20.13-1.34-25.24C2438.63,843.2,2438.13,843.68,2436.62,849.11Z"/><path class="cls-1" d="M2138.27,971.12c-2.05,2.2-1.37,8.63,1.37,10.83,3.6,3,8.05-.85,7.37-6.6C2146.49,971,2141,968.42,2138.27,971.12Z"/></g><g id="Слой_2" data-name="Слой 2"><path class="cls-2" d="M621.35,1673.85v88.32H588v-57.08H371.48v-251.3H407v220.06H547V1453.79h35.54v220.06Z"/><path class="cls-2" d="M669.09,1453.79h35.54v193.85l148.63-193.85h33v251.3H851.11V1511.58l-149,193.51h-33Z"/><path class="cls-2" d="M1206.87,1657.34q-34.81,28.37-98.36,30.51v26.57h-33.39v-26.57q-63.54-2.5-98.54-30.87t-35-77.9q0-49.9,35-78.27t98.54-30.87v-25.49h33.39v25.49q63.18,2.52,98.18,31t35,78.09Q1241.7,1629,1206.87,1657.34Zm-204.81-21q25.66,20.64,73.06,23.51V1498.3q-48.11,2.88-73.41,23.34t-25.31,57.44Q976.4,1615.7,1002.06,1636.34Zm179.86,0q25.32-20.64,25.31-57.62,0-36.26-25.67-56.9t-73-23.52v161.55Q1156.61,1657,1181.92,1636.34Z"/><path class="cls-2" d="M1471.81,1477.12q28,23.34,28,64.26t-28,64.26q-28,23.34-76.82,23.34h-62.11v76.11H1297v-251.3h98Q1443.8,1453.79,1471.81,1477.12ZM1446,1583.2q17.94-14.54,18-41.82t-18-41.82q-18-14.55-52.06-14.54h-61v112.72h61Q1428,1597.74,1446,1583.2Z"/><path class="cls-2" d="M1597.82,1691.26a123.34,123.34,0,0,1-47.93-46.13q-17.42-29.43-17.41-65.7t17.41-65.69a123.41,123.41,0,0,1,47.93-46.13q30.51-16.69,68.57-16.7,37.69,0,68.21,16.7a122.51,122.51,0,0,1,47.75,46q17.22,29.26,17.23,65.87t-17.23,65.88a122.51,122.51,0,0,1-47.75,46q-30.52,16.7-68.21,16.7Q1628.34,1708,1597.82,1691.26Zm118.29-27.82a92.13,92.13,0,0,0,34.82-34.64q12.75-22.08,12.75-49.37t-12.75-49.36a92.2,92.2,0,0,0-34.82-34.64q-22.08-12.57-49.72-12.57t-50.08,12.57a91.41,91.41,0,0,0-35.18,34.64q-12.75,22.08-12.75,49.36t12.75,49.37a91.34,91.34,0,0,0,35.18,34.64q22.43,12.57,50.08,12.57T1716.11,1663.44Z"/><path class="cls-2" d="M2052.85,1596.49q13.09,15.62,13.1,40,0,32.67-23.87,50.61t-69.47,18H1857.73v-251.3h108.06q41.28,0,64.44,16.69t23.16,47.93q0,20.46-10.23,34.82t-28.9,21.54Q2039.75,1580.88,2052.85,1596.49Zm-159.58-32.13h70q26.21,0,40-10.41t13.82-30.52q0-20.1-14-30.69t-39.85-10.59h-70Zm136.42,69.28q0-21.54-14.54-31.77t-43.26-10.23h-78.62v85.08h78.62Q2029.7,1676.72,2029.69,1633.64Z"/><path class="cls-2" d="M2289.25,1642.26H2155.7l-27.64,62.83h-37l113.8-251.3h35.55l114.16,251.3h-37.7Zm-12.57-28.72-54.21-123.14-54.2,123.14Z"/><path class="cls-2" d="M2570.35,1453.79v251.3h-35.18v-73.24h-69.29a95.29,95.29,0,0,1-9.69-.36l-50.26,73.6h-38.06l55.65-79.7q-26.92-9-41.29-30t-14.36-51.16q0-42.72,27.47-66.59t74.13-23.87Zm-149.88,133q16.32,14.91,48.28,14.9h66.42V1485h-64.26q-32.31,0-49.55,15.08t-17.23,43.79Q2404.13,1571.9,2420.47,1586.79Z"/><path class="cls-2" d="M870.5,1792.12q28,23.34,28,64.26t-28,64.26q-28,23.34-76.83,23.34H731.56v76.11h-35.9v-251.3h98Q842.5,1768.79,870.5,1792.12ZM844.65,1898.2q17.94-14.54,18-41.82t-18-41.82q-18-14.55-52.06-14.54h-61v112.72h61Q826.7,1912.74,844.65,1898.2Z"/><path class="cls-2" d="M996.5,2006.26a123.31,123.31,0,0,1-47.92-46.13q-17.43-29.43-17.42-65.7t17.42-65.69a123.38,123.38,0,0,1,47.92-46.13q30.51-16.69,68.57-16.7,37.7,0,68.21,16.7a122.51,122.51,0,0,1,47.75,46q17.23,29.26,17.23,65.87T1181,1960.31a122.51,122.51,0,0,1-47.75,46q-30.51,16.7-68.21,16.7Q1027,2023,996.5,2006.26Zm118.29-27.82a92.16,92.16,0,0,0,34.83-34.64q12.74-22.08,12.74-49.37t-12.74-49.36a92.23,92.23,0,0,0-34.83-34.64q-22.08-12.57-49.72-12.57T1015,1810.43a91.41,91.41,0,0,0-35.18,34.64q-12.75,22.08-12.75,49.36t12.75,49.37a91.34,91.34,0,0,0,35.18,34.64q22.44,12.57,50.08,12.57T1114.79,1978.44Z"/><path class="cls-2" d="M1300.75,2006.26a122.78,122.78,0,0,1-47.57-46q-17.22-29.25-17.23-65.88t17.23-65.87a122.51,122.51,0,0,1,47.75-46q30.51-16.69,68.21-16.7,29.43,0,53.85,9.88a110.29,110.29,0,0,1,41.65,29.25l-23.34,22.62q-28.36-29.79-70.72-29.8-28,0-50.62,12.57a91.07,91.07,0,0,0-35.36,34.64q-12.75,22.08-12.75,49.36t12.75,49.37a91,91,0,0,0,35.36,34.64q22.62,12.57,50.62,12.57,42,0,70.72-30.16l23.34,22.62a111.78,111.78,0,0,1-41.83,29.44q-24.58,10-54,10Q1331.09,2023,1300.75,2006.26Z"/><path class="cls-2" d="M1553.12,2006.26a122.82,122.82,0,0,1-47.56-46q-17.24-29.25-17.24-65.88t17.24-65.87a122.48,122.48,0,0,1,47.74-46q30.51-16.69,68.21-16.7,29.45,0,53.85,9.88A110.21,110.21,0,0,1,1717,1805l-23.34,22.62q-28.37-29.79-70.72-29.8-28,0-50.62,12.57a91.07,91.07,0,0,0-35.36,34.64q-12.75,22.08-12.75,49.36T1537,1943.8a91,91,0,0,0,35.36,34.64Q1595,1991,1623,1991q42,0,70.72-30.16l23.34,22.62a111.78,111.78,0,0,1-41.83,29.44q-24.59,10-54,10Q1583.46,2023,1553.12,2006.26Z"/><path class="cls-2" d="M1766.55,1768.79h35.54v193.85l148.62-193.85h33v251.3h-35.18V1826.58l-149,193.51h-33Z"/><path class="cls-2" d="M2246.17,1768.79v251.3H2211v-73.24H2141.7a95.29,95.29,0,0,1-9.69-.36l-50.26,73.6h-38.06l55.65-79.7q-26.93-9-41.29-30t-14.36-51.16q0-42.72,27.47-66.59t74.13-23.87Zm-149.88,133q16.32,14.91,48.28,14.9H2211V1800h-64.26q-32.31,0-49.55,15.08T2080,1858.89Q2080,1886.9,2096.29,1901.79Z"/></g></svg>